# xmcd
#
# Track frame offsets:
#	150
#	20767
#	40034
#	62248
#	81273
#	98237
#	117809
#	134181
#	148201
#	164413
#	181217
#	195772
#	214321
#
# Disc length: 3140 seconds
#
# Revision: 0
# Processed by: cddbd v1.5.1PL2 Copyright (c) Steve Scherf et al.
# Submitted via: audiograbber 1.83.01
#
DISCID=bf0c420d
DTITLE=фицй фацй  - лауяо тяиамтажукко 
DYEAR=1998
DGENRE=каийа
TTITLE0=лиа йаядиа целатг дяолоус
TTITLE1=лауяо тяиамтажукко
TTITLE2=кеЗка  (айоуаяека)
TTITLE3=г ацапг сйомг
TTITLE4=паяацйа
TTITLE5=факифолаи
TTITLE6=та паяалухиа тгс вакилас
TTITLE7=йоуяеки
TTITLE8=хекеи о еяытас
TTITLE9=COME BACK
TTITLE10=танидиаяа лоу ьувг
TTITLE11=жытоцяажиа
TTITLE12=хессакомийг
EXTD=
EXTT0=
EXTT1=
EXTT2=
EXTT3=
EXTT4=
EXTT5=
EXTT6=
EXTT7=
EXTT8=
EXTT9=
EXTT10=
EXTT11=
EXTT12=
PLAYORDER=
